<svg width="32" height="31" viewBox="0 0 32 31" fill="none" xmlns="http://www.w3.org/2000/svg">
<path d="M12.293 0.335447L12.293 9.95016C12.293 13.3127 11.7987 16.3425 10.8102 19.0395C9.82162 21.7715 8.68959 24.1008 7.41405 26.0272C6.10663 27.9537 4.99053 29.3897 4.06577 30.3354L0.19133 28.0237C0.924763 27.078 1.81764 25.8346 2.86996 24.2934C3.89038 22.7523 4.7992 20.9834 5.59641 18.9869C6.36173 17.0255 6.74439 14.8889 6.74439 12.5771L1.55248e-06 12.5771L2.62268e-06 0.335446L12.293 0.335447ZM32 0.335449L32 9.95016C32 13.3127 31.5057 16.3425 30.5172 19.0395C29.5287 21.7715 28.3966 24.1008 27.1211 26.0272C25.8137 27.9537 24.6976 29.3897 23.7728 30.3354L19.8984 28.0237C20.6318 27.078 21.5247 25.8346 22.577 24.2934C23.5974 22.7523 24.5062 20.9834 25.3034 18.9869C26.0688 17.0255 26.4514 14.8889 26.4514 12.5771L19.707 12.5771L19.707 0.335448L32 0.335449Z" fill="#B0E155"/>
</svg>
