<svg width="20" height="20" viewBox="0 0 20 20" fill="none" xmlns="http://www.w3.org/2000/svg">
<path d="M6.66699 4.79199C6.32533 4.79199 6.04199 4.50866 6.04199 4.16699V1.66699C6.04199 1.32533 6.32533 1.04199 6.66699 1.04199C7.00866 1.04199 7.29199 1.32533 7.29199 1.66699V4.16699C7.29199 4.50866 7.00866 4.79199 6.66699 4.79199Z" fill="#475467"/>
<path d="M13.333 4.79199C12.9913 4.79199 12.708 4.50866 12.708 4.16699V1.66699C12.708 1.32533 12.9913 1.04199 13.333 1.04199C13.6747 1.04199 13.958 1.32533 13.958 1.66699V4.16699C13.958 4.50866 13.6747 4.79199 13.333 4.79199Z" fill="#475467"/>
<path d="M17.0837 8.20019H2.91699C2.57533 8.20019 2.29199 7.91686 2.29199 7.5752C2.29199 7.23353 2.57533 6.9502 2.91699 6.9502H17.0837C17.4253 6.9502 17.7087 7.23353 17.7087 7.5752C17.7087 7.91686 17.4253 8.20019 17.0837 8.20019Z" fill="#475467"/>
<path d="M13.3333 18.9587H6.66667C3.625 18.9587 1.875 17.2087 1.875 14.167V7.08366C1.875 4.04199 3.625 2.29199 6.66667 2.29199H13.3333C16.375 2.29199 18.125 4.04199 18.125 7.08366V14.167C18.125 17.2087 16.375 18.9587 13.3333 18.9587ZM6.66667 3.54199C4.28333 3.54199 3.125 4.70033 3.125 7.08366V14.167C3.125 16.5503 4.28333 17.7087 6.66667 17.7087H13.3333C15.7167 17.7087 16.875 16.5503 16.875 14.167V7.08366C16.875 4.70033 15.7167 3.54199 13.3333 3.54199H6.66667Z" fill="#475467"/>
<path d="M7.08333 12.0837C6.975 12.0837 6.86666 12.0587 6.76666 12.017C6.66666 11.9753 6.57501 11.917 6.49167 11.842C6.41667 11.7587 6.35832 11.667 6.31666 11.567C6.27499 11.467 6.25 11.3587 6.25 11.2503C6.25 11.0337 6.34167 10.817 6.49167 10.6587C6.57501 10.5837 6.66666 10.5253 6.76666 10.4837C6.91666 10.417 7.08334 10.4003 7.25001 10.4337C7.30001 10.442 7.35 10.4587 7.4 10.4837C7.45 10.5003 7.5 10.5253 7.55 10.5587C7.59166 10.592 7.63333 10.6253 7.67499 10.6587C7.70833 10.7003 7.74999 10.742 7.77499 10.7837C7.80832 10.8337 7.83334 10.8837 7.85001 10.9337C7.87501 10.9837 7.89168 11.0337 7.90001 11.0837C7.90834 11.142 7.91667 11.192 7.91667 11.2503C7.91667 11.467 7.82499 11.6837 7.67499 11.842C7.51666 11.992 7.3 12.0837 7.08333 12.0837Z" fill="#475467"/>
<path d="M10.0003 12.0837C9.78366 12.0837 9.567 11.992 9.40867 11.842C9.37533 11.8004 9.342 11.7587 9.30867 11.717C9.27534 11.667 9.25031 11.6171 9.23365 11.5671C9.20865 11.5171 9.19198 11.4671 9.18365 11.4171C9.17532 11.3587 9.16699 11.3087 9.16699 11.2504C9.16699 11.142 9.19198 11.0337 9.23365 10.9337C9.27531 10.8337 9.33367 10.7421 9.40867 10.6587C9.642 10.4254 10.017 10.3504 10.317 10.4837C10.4253 10.5254 10.5087 10.5837 10.592 10.6587C10.742 10.8171 10.8337 11.0337 10.8337 11.2504C10.8337 11.3087 10.8253 11.3587 10.817 11.4171C10.8087 11.4671 10.792 11.5171 10.767 11.5671C10.7503 11.6171 10.7253 11.667 10.692 11.717C10.6586 11.7587 10.6253 11.8004 10.592 11.842C10.5087 11.917 10.4253 11.9754 10.317 12.0171C10.217 12.0587 10.1087 12.0837 10.0003 12.0837Z" fill="#475467"/>
<path d="M7.08333 14.9997C6.975 14.9997 6.86666 14.9747 6.76666 14.9331C6.66666 14.8914 6.57501 14.8331 6.49167 14.7581C6.41667 14.6747 6.35832 14.5914 6.31666 14.4831C6.27499 14.3831 6.25 14.2747 6.25 14.1664C6.25 13.9497 6.34167 13.7331 6.49167 13.5747C6.57501 13.4997 6.66666 13.4414 6.76666 13.3997C7.075 13.2664 7.44166 13.3414 7.67499 13.5747C7.70833 13.6164 7.74999 13.6581 7.77499 13.6997C7.80832 13.7497 7.83334 13.7997 7.85001 13.8497C7.87501 13.8997 7.89168 13.9497 7.90001 14.0081C7.90834 14.0581 7.91667 14.1164 7.91667 14.1664C7.91667 14.3831 7.82499 14.5997 7.67499 14.7581C7.51666 14.9081 7.3 14.9997 7.08333 14.9997Z" fill="#475467"/>
</svg>
