<svg width="16" height="17" viewBox="0 0 16 17" fill="none" xmlns="http://www.w3.org/2000/svg">
<rect width="16" height="16" transform="translate(0 0.329102)" fill="white"/>
<mask id="path-1-inside-1_308_1739" fill="white">
<path d="M8.00001 11.529C7.53335 11.529 7.06668 11.349 6.71335 10.9957L2.36668 6.64903C2.17335 6.4557 2.17335 6.1357 2.36668 5.94236C2.56001 5.74903 2.88001 5.74903 3.07335 5.94236L7.42001 10.289C7.74001 10.609 8.26001 10.609 8.58001 10.289L12.9267 5.94236C13.12 5.74903 13.44 5.74903 13.6333 5.94236C13.8267 6.1357 13.8267 6.4557 13.6333 6.64903L9.28668 10.9957C8.93335 11.349 8.46668 11.529 8.00001 11.529Z"/>
</mask>
<path d="M8.00001 11.529C7.53335 11.529 7.06668 11.349 6.71335 10.9957L2.36668 6.64903C2.17335 6.4557 2.17335 6.1357 2.36668 5.94236C2.56001 5.74903 2.88001 5.74903 3.07335 5.94236L7.42001 10.289C7.74001 10.609 8.26001 10.609 8.58001 10.289L12.9267 5.94236C13.12 5.74903 13.44 5.74903 13.6333 5.94236C13.8267 6.1357 13.8267 6.4557 13.6333 6.64903L9.28668 10.9957C8.93335 11.349 8.46668 11.529 8.00001 11.529Z" fill="#475467"/>
<path d="M6.71335 10.9957L6.00624 11.7028L6.71335 10.9957ZM2.36668 6.64903L3.07379 5.94192V5.94192L2.36668 6.64903ZM3.07335 5.94236L2.36624 6.64947L3.07335 5.94236ZM7.42001 10.289L8.12712 9.58192L7.42001 10.289ZM8.58001 10.289L9.28712 10.9961L8.58001 10.289ZM12.9267 5.94236L12.2196 5.23526V5.23526L12.9267 5.94236ZM13.6333 6.64903L12.9262 5.94192V5.94192L13.6333 6.64903ZM9.28668 10.9957L9.99379 11.7028L9.28668 10.9957ZM8.00001 10.529C7.78939 10.529 7.57986 10.448 7.42045 10.2886L6.00624 11.7028C6.5535 12.2501 7.2773 12.529 8.00001 12.529V10.529ZM7.42045 10.2886L3.07379 5.94192L1.65957 7.35614L6.00624 11.7028L7.42045 10.2886ZM3.07379 5.94192C3.27098 6.13911 3.27098 6.45228 3.07379 6.64947L1.65957 5.23526C1.07572 5.81911 1.07572 6.77228 1.65957 7.35614L3.07379 5.94192ZM3.07379 6.64947C2.8766 6.84666 2.56343 6.84666 2.36624 6.64947L3.78045 5.23526C3.1966 4.6514 2.24343 4.6514 1.65957 5.23526L3.07379 6.64947ZM2.36624 6.64947L6.71291 10.9961L8.12712 9.58192L3.78045 5.23526L2.36624 6.64947ZM6.71291 10.9961C7.42343 11.7067 8.5766 11.7067 9.28712 10.9961L7.87291 9.58192C7.94343 9.5114 8.0566 9.5114 8.12712 9.58192L6.71291 10.9961ZM9.28712 10.9961L13.6338 6.64947L12.2196 5.23526L7.87291 9.58192L9.28712 10.9961ZM13.6338 6.64947C13.4366 6.84666 13.1234 6.84666 12.9262 6.64947L14.3405 5.23526C13.7566 4.6514 12.8034 4.6514 12.2196 5.23526L13.6338 6.64947ZM12.9262 6.64947C12.729 6.45228 12.729 6.13911 12.9262 5.94192L14.3405 7.35614C14.9243 6.77228 14.9243 5.81911 14.3405 5.23526L12.9262 6.64947ZM12.9262 5.94192L8.57957 10.2886L9.99379 11.7028L14.3405 7.35614L12.9262 5.94192ZM8.57957 10.2886C8.42016 10.448 8.21064 10.529 8.00001 10.529V12.529C8.72272 12.529 9.44653 12.2501 9.99379 11.7028L8.57957 10.2886Z" fill="#475467" mask="url(#path-1-inside-1_308_1739)"/>
</svg>
