<svg width="24" height="25" viewBox="0 0 24 25" fill="none" xmlns="http://www.w3.org/2000/svg">
<path d="M12 2.3291C6.49 2.3291 2 6.8191 2 12.3291C2 17.8391 6.49 22.3291 12 22.3291C17.51 22.3291 22 17.8391 22 12.3291C22 6.8191 17.51 2.3291 12 2.3291ZM11.25 8.3291C11.25 7.9191 11.59 7.5791 12 7.5791C12.41 7.5791 12.75 7.9191 12.75 8.3291V13.3291C12.75 13.7391 12.41 14.0791 12 14.0791C11.59 14.0791 11.25 13.7391 11.25 13.3291V8.3291ZM12.92 16.7091C12.87 16.8391 12.8 16.9391 12.71 17.0391C12.61 17.1291 12.5 17.1991 12.38 17.2491C12.26 17.2991 12.13 17.3291 12 17.3291C11.87 17.3291 11.74 17.2991 11.62 17.2491C11.5 17.1991 11.39 17.1291 11.29 17.0391C11.2 16.9391 11.13 16.8391 11.08 16.7091C11.03 16.5891 11 16.4591 11 16.3291C11 16.1991 11.03 16.0691 11.08 15.9491C11.13 15.8291 11.2 15.7191 11.29 15.6191C11.39 15.5291 11.5 15.4591 11.62 15.4091C11.86 15.3091 12.14 15.3091 12.38 15.4091C12.5 15.4591 12.61 15.5291 12.71 15.6191C12.8 15.7191 12.87 15.8291 12.92 15.9491C12.97 16.0691 13 16.1991 13 16.3291C13 16.4591 12.97 16.5891 12.92 16.7091Z" fill="#3d454e"/>
</svg>
