<svg width="32" height="31" viewBox="0 0 32 31" fill="none" xmlns="http://www.w3.org/2000/svg">
<path d="M19.707 30.3354V20.7207C19.707 17.3582 20.2013 14.3284 21.1898 11.6314C22.1784 8.89937 23.3104 6.57013 24.5859 4.64368C25.8934 2.71724 27.0095 1.28116 27.9342 0.335449L31.8087 2.64718C31.0752 3.59289 30.1824 4.83632 29.13 6.37748C28.1096 7.91864 27.2008 9.68746 26.4036 11.684C25.6383 13.6454 25.2556 15.782 25.2556 18.0938H32V30.3354H19.707ZM0 30.3354V20.7207C0 17.3582 0.49427 14.3284 1.48281 11.6314C2.47135 8.89937 3.60339 6.57013 4.87892 4.64368C6.18635 2.71724 7.30244 1.28116 8.22721 0.335449L12.1016 2.64718C11.3682 3.59289 10.4753 4.83632 9.42302 6.37748C8.40259 7.91864 7.49377 9.68746 6.69656 11.684C5.93124 13.6454 5.54858 15.782 5.54858 18.0938H12.293V30.3354H0Z" fill="#B0E155"/>
</svg>
